<?xml version="1.0" encoding="utf-8"?>
<!-- Generator: Adobe Illustrator 21.1.0, SVG Export Plug-In . SVG Version: 6.00 Build 0)  -->
<svg version="1.1" id="Layer_1" xmlns="http://www.w3.org/2000/svg" xmlns:xlink="http://www.w3.org/1999/xlink" x="0px" y="0px"
	 width="113px" height="40px" viewBox="0 0 113 40" style="enable-background:new 0 0 113 40;" xml:space="preserve">
<style type="text/css">
	.st0{fill-rule:evenodd;clip-rule:evenodd;fill:url(#SVGID_1_);}
	.st1{fill:#A5CD39;}
	.st2{fill:#40AA8B;}
	.st3{fill-rule:evenodd;clip-rule:evenodd;fill:#A5CD39;}
	.st4{clip-path:url(#SVGID_3_);fill-rule:evenodd;clip-rule:evenodd;fill:#A5CD39;}
	.st5{opacity:0.36;clip-path:url(#SVGID_3_);fill-rule:evenodd;clip-rule:evenodd;fill:url(#SVGID_4_);}
	.st6{opacity:0.71;clip-path:url(#SVGID_3_);fill-rule:evenodd;clip-rule:evenodd;fill:url(#SVGID_5_);}
	.st7{opacity:0.79;clip-path:url(#SVGID_7_);fill-rule:evenodd;clip-rule:evenodd;fill:url(#SVGID_8_);}
	.st8{opacity:0.47;clip-path:url(#SVGID_7_);fill-rule:evenodd;clip-rule:evenodd;fill:url(#SVGID_9_);}
	.st9{opacity:0.61;clip-path:url(#SVGID_7_);fill-rule:evenodd;clip-rule:evenodd;fill:url(#SVGID_10_);}
	.st10{opacity:0.66;clip-path:url(#SVGID_7_);fill-rule:evenodd;clip-rule:evenodd;fill:url(#SVGID_11_);}
	.st11{opacity:0.39;clip-path:url(#SVGID_7_);fill-rule:evenodd;clip-rule:evenodd;fill:url(#SVGID_12_);}
</style>
<g>
	<linearGradient id="SVGID_1_" gradientUnits="userSpaceOnUse" x1="39.9932" y1="1.5128" x2="19.2532" y2="37.4356">
		<stop  offset="0" style="stop-color:#00A48B"/>
		<stop  offset="0.9995" style="stop-color:#A5CD39"/>
	</linearGradient>
	<path class="st0" d="M11,19.5c0-4.3,4.1-9.9,11.1-12.9c12.2-5.3,19.2-0.4,21,4.2c1.7,4.3-1.7,12-7.4,17.6c4.1-3,7.5-6.1,9.8-9.2
		c3.1-4.1,4.4-8,3.2-11.1c-1.7-4.5-8.6-6-17.2-4.8S16.3,6.7,11,9.5C5,12.5,2,16,1.5,20.1C0.9,26,7.3,34,21.8,35
		c7.6,0.5,15,0.7,29.1-2.8C49.2,32.3,10.9,37.1,11,19.5z"/>
	<g>
		<path class="st1" d="M70.1,4.5v4h-9.9v4.1h8.9v3.8h-8.9v4.1h10.2v3.9H55.7V4.5H70.1z"/>
		<path class="st1" d="M88.7,14.2h4.5v7.1c-2,2.2-4.7,3.3-8.2,3.3c-2.9,0-5.4-1-7.4-2.9c-2-1.9-3-4.4-3-7.3c0-3,1-5.4,3-7.4
			c2-2,4.5-3,7.3-3c2.9,0,5.3,0.9,7.4,2.8l-2.3,3.3c-0.9-0.8-1.7-1.3-2.5-1.6c-0.7-0.3-1.6-0.4-2.4-0.4c-1.7,0-3.1,0.6-4.3,1.7
			c-1.2,1.1-1.7,2.7-1.7,4.5s0.6,3.4,1.7,4.5c1.1,1.1,2.4,1.7,4,1.7c1.5,0,2.8-0.3,3.8-0.9V14.2z"/>
		<path class="st1" d="M106.6,8.3v16.1h-4.4V8.3h-5.6V4.5h15.7v3.8H106.6z"/>
	</g>
	<g>
		<path class="st2" d="M55.8,29.3h0.8v5h-0.8V29.3z"/>
		<path class="st2" d="M62.5,29.3h0.8v5h-0.9l-2.8-3.6v3.6h-0.8v-5h0.8l2.9,3.7V29.3z"/>
		<path class="st2" d="M67.3,30.1v4.2h-0.8v-4.2h-1.5v-0.8h3.9v0.8H67.3z"/>
		<path class="st2" d="M73.9,29.3v0.8h-2.7v1.3h2.4v0.7h-2.4v1.3H74v0.8h-3.6v-5H73.9z"/>
		<path class="st2" d="M79.8,31c0,0.8-0.4,1.3-1.1,1.6l1.3,1.8h-1.1l-1.2-1.7h-1.1v1.7h-0.8v-5h1.9c0.8,0,1.3,0.1,1.6,0.4
			C79.6,30,79.8,30.4,79.8,31z M78.7,31.7c0.2-0.1,0.3-0.4,0.3-0.7c0-0.3-0.1-0.5-0.3-0.7c-0.2-0.1-0.5-0.2-0.9-0.2h-1.1v1.8h1
			C78.2,31.9,78.5,31.8,78.7,31.7z"/>
		<path class="st2" d="M82.4,33.2l-0.5,1.1H81l2.2-5h0.9l2.2,5h-0.9l-0.5-1.1H82.4z M84.6,32.4l-0.9-2.1l-0.9,2.1H84.6z"/>
		<path class="st2" d="M90,33.6c0.3,0,0.5,0,0.7-0.1c0.2-0.1,0.4-0.3,0.7-0.5l0.5,0.6c-0.5,0.6-1.2,0.9-1.9,0.9
			c-0.8,0-1.4-0.2-1.9-0.7c-0.5-0.5-0.7-1.1-0.7-1.8c0-0.7,0.3-1.4,0.8-1.9s1.1-0.7,1.9-0.7c0.8,0,1.4,0.3,1.9,0.9l-0.5,0.6
			c-0.2-0.2-0.5-0.4-0.7-0.5c-0.2-0.1-0.5-0.1-0.7-0.1c-0.5,0-0.9,0.2-1.3,0.5c-0.3,0.3-0.5,0.7-0.5,1.2c0,0.5,0.2,0.9,0.5,1.3
			C89.1,33.4,89.5,33.6,90,33.6z"/>
		<path class="st2" d="M95.6,30.1v4.2h-0.8v-4.2h-1.5v-0.8h3.9v0.8H95.6z"/>
		<path class="st2" d="M98.7,29.3h0.8v5h-0.8V29.3z"/>
		<path class="st2" d="M103.9,34.3H103l-2-5h0.9l1.5,3.7l1.5-3.7h0.9L103.9,34.3z"/>
		<path class="st2" d="M110.9,29.3v0.8h-2.7v1.3h2.4v0.7h-2.4v1.3h2.7v0.8h-3.6v-5H110.9z"/>
	</g>
	<path class="st3" d="M25.1,26.4c4.5,0,8.3-3.7,8.3-8.3c0-4.5-3.7-8.3-8.3-8.3c-4.5,0-8.3,3.7-8.3,8.3
		C16.9,22.7,20.6,26.4,25.1,26.4L25.1,26.4z"/>
	<g>
		<defs>
			<path id="SVGID_2_" d="M25.1,26.4c4.6,0,8.3-3.7,8.3-8.3c0-4.6-3.7-8.3-8.3-8.3s-8.3,3.7-8.3,8.3C16.9,22.7,20.6,26.4,25.1,26.4
				L25.1,26.4z"/>
		</defs>
		<clipPath id="SVGID_3_">
			<use xlink:href="#SVGID_2_"  style="overflow:visible;"/>
		</clipPath>
		<path class="st4" d="M25.1,26.2c4.6,0,8.3-3.7,8.3-8.3c0-4.6-3.7-8.3-8.3-8.3s-8.3,3.7-8.3,8.3C16.9,22.5,20.6,26.2,25.1,26.2
			L25.1,26.2z"/>
		<linearGradient id="SVGID_4_" gradientUnits="userSpaceOnUse" x1="11.6825" y1="12.7086" x2="31.0996" y2="12.7086">
			<stop  offset="0" style="stop-color:#0092C0"/>
			<stop  offset="0.9995" style="stop-color:#A5CD39"/>
		</linearGradient>
		<path class="st5" d="M21.4,22.4c5.3,0,9.7-4.4,9.7-9.7S26.7,3,21.4,3c-5.3,0-9.7,4.4-9.7,9.7S16,22.4,21.4,22.4L21.4,22.4z"/>
		<linearGradient id="SVGID_5_" gradientUnits="userSpaceOnUse" x1="31.2574" y1="21.7548" x2="23.6063" y2="8.5026">
			<stop  offset="0" style="stop-color:#91C73E"/>
			<stop  offset="1" style="stop-color:#0092C0"/>
		</linearGradient>
		<path class="st6" d="M27.4,22.8c4.2,0,7.6-3.4,7.6-7.7s-3.4-7.7-7.6-7.7s-7.6,3.4-7.6,7.7S23.2,22.8,27.4,22.8L27.4,22.8z"/>
	</g>
	<g>
		<defs>
			<path id="SVGID_6_" d="M70.1,4.5v4h-9.9v4.1h8.9v3.8h-8.9v4.1h10.2v3.9H55.7V4.5H70.1z M88.7,14.2h4.5v7.1
				c-2,2.2-4.7,3.3-8.2,3.3c-2.9,0-5.4-1-7.4-2.9c-2-1.9-3-4.4-3-7.3c0-3,1-5.4,3-7.4c2-2,4.5-3,7.3-3c2.9,0,5.3,0.9,7.4,2.8
				l-2.3,3.3c-0.9-0.8-1.7-1.3-2.5-1.6c-0.7-0.3-1.6-0.4-2.4-0.4c-1.7,0-3.1,0.6-4.3,1.7c-1.2,1.1-1.7,2.7-1.7,4.5s0.6,3.4,1.7,4.5
				c1.1,1.1,2.4,1.7,4,1.7c1.5,0,2.8-0.3,3.8-0.9V14.2z M106.6,8.3v16.1h-4.4V8.3h-5.6V4.5h15.7v3.8H106.6z"/>
		</defs>
		<clipPath id="SVGID_7_">
			<use xlink:href="#SVGID_6_"  style="overflow:visible;"/>
		</clipPath>
		<linearGradient id="SVGID_8_" gradientUnits="userSpaceOnUse" x1="54.0166" y1="18.6601" x2="90.8317" y2="18.6601">
			<stop  offset="0" style="stop-color:#0092C0"/>
			<stop  offset="0.9995" style="stop-color:#A5CD39"/>
		</linearGradient>
		<path class="st7" d="M90.8,24.7c-1-6.8-8.9-12.1-18.4-12.1c-9.5,0-17.4,5.3-18.4,12.1H90.8z"/>
		<linearGradient id="SVGID_9_" gradientUnits="userSpaceOnUse" x1="114.967" y1="22.8507" x2="99.5072" y2="3.0631">
			<stop  offset="0" style="stop-color:#0092C0"/>
			<stop  offset="0.9995" style="stop-color:#A5CD39"/>
		</linearGradient>
		<path class="st8" d="M97.9,4.3c-2.2,4.1-1.5,10,2.1,14.7c3.3,4.2,8.1,6.3,12.3,5.9V4.3H97.9z"/>
		<linearGradient id="SVGID_10_" gradientUnits="userSpaceOnUse" x1="76.8217" y1="17.4271" x2="91.8118" y2="5.2883">
			<stop  offset="0" style="stop-color:#0092C0"/>
			<stop  offset="0.9995" style="stop-color:#A5CD39"/>
		</linearGradient>
		<path class="st9" d="M90.7,3.9H78.5c-3.9,3.7-5.3,9-1.7,13.4c3.3,4.1,9.4,4.6,13.6,1.3c4.3-3.4,4-10.1,0.7-14.2
			C91,4.2,90.8,4.1,90.7,3.9z"/>
		<linearGradient id="SVGID_11_" gradientUnits="userSpaceOnUse" x1="99.6388" y1="23.2478" x2="115.3689" y2="10.5099">
			<stop  offset="0" style="stop-color:#0092C0"/>
			<stop  offset="0.9995" style="stop-color:#A5CD39"/>
		</linearGradient>
		<path class="st10" d="M112.4,6.8c-3-0.6-6.6,0.3-9.6,2.7c-4.8,3.8-6.2,9.9-3.2,13.7c2.7,3.4,8.2,3.7,12.8,0.9V6.8z"/>
		<linearGradient id="SVGID_12_" gradientUnits="userSpaceOnUse" x1="50.8941" y1="3.4852" x2="72.1885" y2="20.729">
			<stop  offset="0" style="stop-color:#0092C0"/>
			<stop  offset="0.9995" style="stop-color:#A5CD39"/>
		</linearGradient>
		<path class="st11" d="M50.2,4.3c-3,4.9-1.3,12,4.1,16.5c5.8,4.8,13.8,4.8,17.8,0c3.7-4.5,2.7-11.6-2.1-16.5H50.2z"/>
	</g>
</g>
</svg>
